<?xml version="1.0" encoding="UTF-8"?>
<svg version="1.1" xmlns="http://www.w3.org/2000/svg" width="1028" height="714">
<path d="M0 0 C339.24 0 678.48 0 1028 0 C1028 235.62 1028 471.24 1028 714 C688.76 714 349.52 714 0 714 C0 478.38 0 242.76 0 0 Z " fill="#010101" transform="translate(0,0)"/>
<path d="M0 0 C0.75488708 0.14598633 1.50977417 0.29197266 2.28753662 0.44238281 C11.68966863 2.29482744 20.80246919 4.73166664 29.90844727 7.71240234 C32.77947321 8.64024018 35.64700906 9.47710449 38.5625 10.25 C43.56871229 11.71792326 48.05121776 14.06970916 52.6484375 16.5078125 C54.91615265 17.61839441 56.84926926 18.33386275 59.3125 18.8125 C59.3125 19.4725 59.3125 20.1325 59.3125 20.8125 C59.84359375 20.90917969 60.3746875 21.00585938 60.921875 21.10546875 C80.88039644 27.00823408 100.64590279 46.66046611 114.75390625 61.25390625 C116.4059881 62.96955859 116.4059881 62.96955859 118.875 64.8125 C122.47388498 67.76543126 125.32845744 71.25185958 128.3125 74.8125 C129.43785156 76.14087891 129.43785156 76.14087891 130.5859375 77.49609375 C142.3125 91.54069767 142.3125 91.54069767 142.3125 95.8125 C142.9725 95.8125 143.6325 95.8125 144.3125 95.8125 C148.7735469 103.29554642 152.92604922 110.66429559 156.109375 118.80078125 C157.07005035 121.2055887 158.10598634 123.51520934 159.19921875 125.859375 C161.7893195 131.65842342 163.58461237 137.66482882 165.375 143.75 C165.902146 145.53917847 165.902146 145.53917847 166.43994141 147.36450195 C168.95977485 156.13070805 170.90469722 164.78437215 172.05224609 173.82861328 C172.30622734 175.7646842 172.61535193 177.69326837 172.92578125 179.62109375 C178.13059565 214.21363571 172.44544038 251.21425654 160.3125 283.8125 C159.94769531 284.81539063 159.58289063 285.81828125 159.20703125 286.8515625 C150.47121087 309.24301545 137.36129771 329.99319436 121.3125 347.8125 C120.36194714 348.88538829 119.41142661 349.95830523 118.4609375 351.03125 C113.39973547 356.69611351 108.21198564 362.01174407 102.3125 366.8125 C101.22394699 367.72524688 100.13540648 368.63800868 99.046875 369.55078125 C90.26611731 376.82717214 81.11845199 383.01176169 71.3125 388.8125 C70.00903912 389.60013555 68.7056526 390.38789416 67.40234375 391.17578125 C66.16503223 391.91048973 64.92679168 392.64363656 63.6875 393.375 C62.60210938 394.01566406 61.51671875 394.65632813 60.3984375 395.31640625 C57.29528943 396.82084386 54.72378873 397.43858997 51.3125 397.8125 C51.3125 398.4725 51.3125 399.1325 51.3125 399.8125 C50.15492188 400.245625 48.99734375 400.67875 47.8046875 401.125 C44.99391283 402.17857678 42.1865538 403.24035613 39.3828125 404.3125 C38.06770833 404.8125 36.75260417 405.3125 35.4375 405.8125 C34.79425781 406.06 34.15101563 406.3075 33.48828125 406.5625 C31.43817574 407.33887132 29.3799749 408.08365237 27.3125 408.8125 C26.59980957 409.06507568 25.88711914 409.31765137 25.15283203 409.57788086 C17.26407469 412.16355736 9.12540067 413.20516821 0.9375 414.375 C-1.92570364 414.78507277 -4.78734842 415.20436178 -7.6484375 415.62890625 C-8.90446777 415.80881104 -10.16049805 415.98871582 -11.45458984 416.17407227 C-14.57165122 416.63040165 -14.57165122 416.63040165 -16.69360352 417.86547852 C-19.66426348 419.27642378 -22.35684753 419.10891526 -25.62890625 419.1484375 C-26.30417358 419.15672577 -26.97944092 419.16501404 -27.6751709 419.17355347 C-29.86700192 419.19291383 -32.0580965 419.1928642 -34.25 419.1875 C-34.99869354 419.18762085 -35.74738708 419.1877417 -36.51876831 419.18786621 C-47.51669719 419.16252298 -57.62875773 418.16427299 -68.27490234 415.37695312 C-73.14989298 414.23639672 -78.11723975 413.57567149 -83.0625 412.8125 C-94.62538166 410.9538564 -105.05439512 408.29301138 -115.67578125 403.22265625 C-117.95277309 402.1565161 -120.22501496 401.15256979 -122.54296875 400.18359375 C-129.87411482 397.10609686 -136.66117427 393.9007866 -143.2578125 389.390625 C-145.71464702 387.72634996 -145.71464702 387.72634996 -148.64453125 386.359375 C-151.78506125 384.76290532 -154.43573624 382.92620023 -157.25 380.8125 C-159.8533809 378.86273388 -162.38030529 376.99050067 -165.1953125 375.359375 C-168.12763554 373.53931242 -170.47603228 371.41479408 -173 369.0625 C-176.27450372 366.03413347 -179.55525328 363.03254543 -182.9375 360.125 C-220.71604572 327.19380332 -243.22052549 276.69920274 -247.46044922 227.25585938 C-249.14376016 201.7274534 -247.36661358 176.96433916 -240.875 152.1875 C-240.55595703 150.96659668 -240.23691406 149.74569336 -239.90820312 148.48779297 C-237.54225913 139.91182929 -234.3755416 131.9011096 -230.6875 123.8125 C-230.30859619 122.97170898 -229.92969238 122.13091797 -229.53930664 121.26464844 C-228.58437078 119.16816682 -227.61101773 117.08201828 -226.625 115 C-226.12129883 113.9318103 -226.12129883 113.9318103 -225.60742188 112.84204102 C-223.16597455 107.7101984 -220.54653487 102.72646618 -217.6875 97.8125 C-217.0275 97.8125 -216.3675 97.8125 -215.6875 97.8125 C-215.4090625 96.636875 -215.4090625 96.636875 -215.125 95.4375 C-213.40602921 91.1027041 -210.98134396 87.73752497 -208.24609375 83.984375 C-206.66946832 81.90822282 -206.66946832 81.90822282 -205.6875 79.8125 C-205.0275 79.8125 -204.3675 79.8125 -203.6875 79.8125 C-203.4090625 78.81283203 -203.4090625 78.81283203 -203.125 77.79296875 C-201.06135761 73.51427542 -197.96980663 70.51790565 -194.6875 67.125 C-194.0076001 66.41384033 -193.3277002 65.70268066 -192.62719727 64.9699707 C-191.26822189 63.55239243 -189.90574322 62.1381632 -188.53955078 60.72753906 C-187.0033564 59.13909868 -185.48211646 57.53621155 -183.96484375 55.9296875 C-169.40633647 40.81217243 -149.05269056 24.77968034 -129.12890625 17.72265625 C-126.29188369 16.66501424 -123.65179888 15.341389 -120.9375 14 C-101.71382075 5.17710906 -81.52704969 1.65898208 -60.80004883 -1.63427734 C-40.60916017 -5.2229944 -20.15875694 -3.94863858 0 0 Z " fill="#FDFDFD" transform="translate(550.6875,152.1875)"/>
<path d="M0 0 C149.16 0 298.32 0 452 0 C452 61.71 452 123.42 452 187 C451.34 185.68 450.68 184.36 450 183 C444.8590103 176.25326037 440.58890055 172.1625583 432 171 C429.31785103 170.83506947 426.68232388 170.72531472 424 170.6875 C423.31421875 170.65849609 422.6284375 170.62949219 421.921875 170.59960938 C416.7478556 170.53542784 413.94893548 171.72142589 410 175 C407.89948342 177.26823745 407.89948342 177.26823745 406.1875 179.6875 C405.60355469 180.47511719 405.01960938 181.26273438 404.41796875 182.07421875 C403.95003906 182.70972656 403.48210937 183.34523437 403 184 C401.23268289 185.76731711 398.88363613 185.13038113 396.52874064 185.1430676 C395.3417592 185.14176787 395.3417592 185.14176787 394.13079834 185.14044189 C393.29634351 185.14341302 392.46188868 185.14638414 391.60214734 185.1494453 C388.7839086 185.15817156 385.96571215 185.15964385 383.14746094 185.16113281 C381.13574634 185.16575827 379.12403263 185.17078256 377.11231995 185.17617798 C371.63081363 185.18933158 366.14931959 185.19575286 360.66779995 185.20018864 C357.24603293 185.20311503 353.82426929 185.20721903 350.40250397 185.21169281 C339.70508996 185.22537648 329.00768365 185.23503847 318.31026149 185.2388947 C305.94630244 185.24337562 293.58245394 185.26092148 281.21852851 185.2898953 C271.67285933 185.31149087 262.1272213 185.32159787 252.58152795 185.32293582 C246.87539189 185.32398551 241.16935962 185.32992801 235.46324921 185.34775543 C230.0952911 185.36419905 224.72751521 185.36640966 219.35954094 185.35761642 C217.3878652 185.35684402 215.41617982 185.36121546 213.44452858 185.37107468 C210.75517913 185.38373516 208.0664807 185.37794955 205.37713623 185.36749268 C204.20353912 185.37957728 204.20353912 185.37957728 203.00623298 185.39190602 C198.47915292 185.35066836 195.60391952 184.78468791 192 182 C189.7265625 179.44140625 189.7265625 179.44140625 187.625 176.5625 C186.91601562 175.61503906 186.20703125 174.66757813 185.4765625 173.69140625 C184 171 184 171 183.98828125 168.97265625 C185.43220789 166.15727806 187.37924455 164.1615851 189.5625 161.875 C193.52518523 157.65240883 197.21721271 153.30634879 200.78515625 148.74609375 C202.50634137 146.61206705 204.25570765 144.53617397 206.05859375 142.47265625 C206.59564941 141.85688721 207.13270508 141.24111816 207.68603516 140.60668945 C208.74420714 139.3987342 209.8074373 138.19518502 210.87646484 136.99682617 C213.90294321 133.53650288 216.11517611 130.24567838 218 126 C217.46375 125.773125 216.9275 125.54625 216.375 125.3125 C208.6662834 121.05241978 202.69842694 113.69865733 196.61560059 107.46170044 C193.16613928 103.9322391 189.70102107 100.41833034 186.23486328 96.90527344 C184.4062431 95.04629052 182.58301741 93.18198631 180.76513672 91.3125 C178.13861728 88.61348237 175.49343575 85.9340657 172.84375 83.2578125 C172.03216431 82.41525909 171.22057861 81.57270569 170.38439941 80.70462036 C169.6201062 79.93987396 168.85581299 79.17512756 168.06835938 78.38720703 C167.40171265 77.70723663 166.73506592 77.02726624 166.04821777 76.32669067 C164.03574716 74.72795789 164.03574716 74.72795789 161.36584473 75.21179199 C158.80901366 76.06362927 157.29925744 77.03671371 155.25 78.7734375 C154.56534668 79.34586182 153.88069336 79.91828613 153.17529297 80.50805664 C152.45744629 81.12414795 151.73959961 81.74023926 151 82.375 C150.25250488 83.0033374 149.50500977 83.6316748 148.73486328 84.27905273 C146.48159479 86.17647876 144.23937848 88.08621206 142 90 C140.74763058 91.06668193 139.49504391 92.13310886 138.2421875 93.19921875 C137.67371094 93.68310059 137.10523438 94.16698242 136.51953125 94.66552734 C134.02158364 96.7874478 131.51436536 98.8975321 129 101 C128.28070312 101.60199219 127.56140625 102.20398438 126.8203125 102.82421875 C122.72193977 106.03431756 122.72193977 106.03431756 119.78125 105.89453125 C115.94233857 104.65982519 112.86313747 102.63085052 109.5 100.4375 C108.06532703 99.52178615 106.63042827 98.60642597 105.1953125 97.69140625 C104.48536133 97.23523926 103.77541016 96.77907227 103.04394531 96.30908203 C89.86380747 87.86762251 76.67078893 79.58887197 62 74 C62.62750691 65.4212069 64.23788188 57.14352213 65.95629883 48.73144531 C66.43768928 46.3740731 66.91182297 44.01533007 67.38476562 41.65625 C67.692287 40.13272739 68.00021584 38.60928696 68.30859375 37.0859375 C68.51807899 36.04655533 68.51807899 36.04655533 68.73179626 34.98617554 C69.69391159 30.28806589 70.81107049 25.64601064 72 21 C71.24332031 20.91621094 70.48664063 20.83242188 69.70703125 20.74609375 C63.48639038 19.49409964 57.62975761 17.12842482 51.67382812 14.97070312 C46.52287875 13.13421887 41.48364195 11.54285425 36.12475586 10.44995117 C32.51429009 9.68537707 28.98427886 8.63932953 25.4375 7.625 C16.99901533 5.24338505 8.51794644 3.07726487 0 1 C0 0.67 0 0.34 0 0 Z " fill="#010101" transform="translate(576,0)"/>
<path d="M0 0 C0.66 1.32 1.32 2.64 2 4 C3.051875 5.546875 3.051875 5.546875 4.125 7.125 C6 10 6 10 6 12 C7.32258472 12.68774405 8.65986503 13.34711373 10 14 C10.928125 14.53625 11.85625 15.0725 12.8125 15.625 C19.22916181 18.33920619 27.52258461 18.04420288 34.2109375 16.484375 C39.37116328 14.01328097 42.6813952 8.7823522 46.08203125 4.36328125 C48 2 48 2 50 1 C52.52586884 0.88929173 55.02496723 0.83896886 57.55166626 0.8326416 C58.73407648 0.82395152 58.73407648 0.82395152 59.94037378 0.81508589 C62.59647365 0.79696836 65.25255218 0.78613773 67.90869141 0.77539062 C69.807314 0.76421917 71.70593462 0.75270597 73.60455322 0.74087524 C79.85352827 0.70426849 86.10252371 0.67909076 92.3515625 0.65625 C93.41424583 0.65230413 94.47692916 0.64835827 95.57181501 0.64429283 C105.59224041 0.60786975 115.61267278 0.57642074 125.63314247 0.55518341 C138.45536432 0.52760817 151.27703297 0.47684799 164.09902442 0.39470911 C173.11142394 0.33892819 182.12367333 0.30994876 191.13623941 0.3007102 C196.52019882 0.29445056 201.90351005 0.27630963 207.28728104 0.22932434 C212.35508448 0.18564569 217.4218856 0.17517336 222.48984528 0.18995285 C224.34742059 0.18962427 226.20503905 0.17735308 228.06244278 0.15210342 C243.84318613 -0.05105368 243.84318613 -0.05105368 249.05062866 4.39855957 C250.72379112 6.25959015 250.72379112 6.25959015 252 8 C252.928125 9.20462891 252.928125 9.20462891 253.875 10.43359375 C254.24625 11.09488281 254.6175 11.75617187 255 12.4375 C255.5878125 13.45650391 255.5878125 13.45650391 256.1875 14.49609375 C256.455625 14.99238281 256.72375 15.48867188 257 16 C253.11508156 21.36939947 248.96646291 26.48763705 244.69189453 31.54882812 C241.67104606 35.14218073 238.84557379 38.82551656 236.15625 42.671875 C235.7746875 43.11015625 235.393125 43.5484375 235 44 C234.34 44 233.68 44 233 44 C231.50178941 47.37097383 231 49.20442119 231 53 C232.49714282 55.03319796 232.49714282 55.03319796 234.578125 56.93359375 C235.32707031 57.66513672 236.07601562 58.39667969 236.84765625 59.15039062 C237.64042969 59.90513672 238.43320313 60.65988281 239.25 61.4375 C248.15231025 70.03716122 248.15231025 70.03716122 252 75 C253.65889763 76.67439966 255.32696615 78.33972494 257 80 C257.93534404 80.95721118 258.86830818 81.91675278 259.79907227 82.87841797 C262.46722933 85.63495199 265.15004962 88.37666327 267.83862305 91.11328125 C268.99412815 92.2941515 270.14513782 93.47943635 271.29174805 94.66894531 C272.95504049 96.3926479 274.63376558 98.09989458 276.31640625 99.8046875 C276.82692032 100.341008 277.33743439 100.87732849 277.86341858 101.42990112 C279.45885614 103.08457648 279.45885614 103.08457648 282 105 C284.22005505 105.03761874 284.22005505 105.03761874 286 104 C287.06734375 103.49339844 287.06734375 103.49339844 288.15625 102.9765625 C296.64298372 98.08254606 303.38817083 91.48986344 310.36328125 84.69921875 C311.04777344 84.05597656 311.73226563 83.41273438 312.4375 82.75 C313.01371094 82.18796875 313.58992188 81.6259375 314.18359375 81.046875 C316 80 316 80 318.484375 80.19921875 C322.04072783 81.33128759 324.81396069 83.06338787 328 85 C328 85.66 328 86.32 328 87 C329.07894531 87.38671875 329.07894531 87.38671875 330.1796875 87.78125 C333.15415778 89.06661666 335.48646857 90.6230272 338.125 92.5 C343.30859779 96.02357445 348.62077144 99.00085246 354.1875 101.875 C355.81259963 102.72767472 357.43759883 103.58054089 359.0625 104.43359375 C361.53569293 105.72858505 364.01259509 107.00622176 366.515625 108.24267578 C368.92766207 109.43684272 371.30722733 110.68147682 373.6875 111.9375 C374.42444092 112.28345215 375.16138184 112.6294043 375.9206543 112.98583984 C378.07208706 114.15671227 379.47826018 115.07534562 381 117 C382.64909386 124.31869958 380.35403045 131.97208627 378.5 139.0625 C376.64180274 146.1989819 375.63970658 152.60898083 376 160 C400.58693153 167.3254338 425.21003971 174.39209476 450 181 C450 181.33 450 181.66 450 182 C301.5 182 153 182 0 182 C0 121.94 0 61.88 0 0 Z " fill="#010101" transform="translate(0,532)"/>
<path d="M0 0 C13.71372728 0.5344558 26.97102409 4.88253554 39.9453125 9.10546875 C42.32044563 9.80100006 44.60138326 10.33643188 47.01953125 10.82421875 C53.37788196 12.19937525 59.43981045 14.45647686 65.5625 16.625 C66.76197266 17.04523437 67.96144531 17.46546875 69.19726562 17.8984375 C72.13314177 18.92774866 75.06729381 19.96169884 78 21 C77.30094012 27.28831741 76.19361761 33.42665301 74.93359375 39.625 C74.73524429 40.61250244 74.53689484 41.60000488 74.33253479 42.61743164 C73.70358286 45.74551074 73.07060609 48.87275933 72.4375 52 C72.00819658 54.13145666 71.5791574 56.26296657 71.15039062 58.39453125 C70.10331639 63.59697395 69.05294386 68.79874228 68 74 C69.08031494 74.29712891 70.16062988 74.59425781 71.27368164 74.90039062 C75.22130319 76.06530496 78.78237856 77.64380131 82.4375 79.5 C83.12851807 79.84893311 83.81953613 80.19786621 84.53149414 80.55737305 C93.95879153 85.41353609 102.84030902 91.16963271 111.609375 97.1171875 C112.37386963 97.62918701 113.13836426 98.14118652 113.92602539 98.66870117 C115.40305276 99.66066784 116.87150253 100.66556125 118.32983398 101.68481445 C122.15654514 104.29693923 122.15654514 104.29693923 126.6171875 105.0703125 C129.77322198 103.6526839 132.22112961 101.83524809 134.9375 99.6875 C135.49743652 99.24744629 136.05737305 98.80739258 136.63427734 98.35400391 C140.89479506 94.97277195 145.01588703 91.43740209 149.125 87.875 C162.20315377 76.56102807 162.20315377 76.56102807 167 74 C170.70344582 74.37824482 172.44272082 76.0815017 174.99902344 78.67431641 C175.77372986 79.45247711 176.54843628 80.23063782 177.34661865 81.03237915 C178.17582825 81.88020966 179.00503784 82.72804016 179.859375 83.6015625 C180.72258362 84.47138763 181.58579224 85.34121277 182.47515869 86.23739624 C185.24060492 89.0262774 187.99573929 91.82507528 190.75 94.625 C193.49161748 97.40181588 196.23539231 100.17644834 198.98199463 102.94833374 C200.69047769 104.673625 202.39585446 106.40199976 204.09759521 108.13394165 C210.39889589 114.51334564 216.93107093 120.47739917 224 126 C223.52879861 130.6951853 221.73535286 132.77980492 218.5 136.125 C217.57845312 137.09811001 216.65923147 138.0734266 215.7421875 139.05078125 C215.2790918 139.54271973 214.81599609 140.0346582 214.33886719 140.54150391 C211.55498889 143.57412407 209.02358673 146.81676668 206.4453125 150.0234375 C204.59692275 152.27339435 202.7244379 154.47638714 200.8046875 156.6640625 C200.25731934 157.29014404 199.70995117 157.91622559 199.14599609 158.5612793 C198.06876096 159.78918675 196.98594705 161.0122278 195.89697266 162.22973633 C192.44888932 166.1395437 192.44888932 166.1395437 191 171 C192.4926756 173.83928942 192.4926756 173.83928942 194.6875 176.625 C195.39261719 177.58664063 196.09773437 178.54828125 196.82421875 179.5390625 C200.00784136 183.13992829 201.81631815 183.90971304 206.66581917 184.2796154 C208.17585891 184.30362457 209.68609591 184.31668477 211.19631958 184.32125854 C212.44655499 184.336522 212.44655499 184.336522 213.72204769 184.35209382 C216.51928176 184.38352451 219.31641255 184.40058762 222.11376953 184.41748047 C224.11781977 184.43655895 226.12186341 184.45634134 228.12590027 184.47677612 C234.71145822 184.53953101 241.29706659 184.58007809 247.8828125 184.6171875 C249.56403521 184.62707947 249.56403521 184.62707947 251.27922201 184.63717127 C261.85158391 184.69873246 272.42395728 184.7521417 282.99644661 184.78600883 C296.51413012 184.82981994 310.03022459 184.91375736 323.5472728 185.05288398 C333.05485311 185.14741524 342.56200509 185.19588237 352.07004058 185.21040261 C357.74739358 185.22030827 363.4229554 185.25038822 369.0997963 185.3298912 C374.4439291 185.4037487 379.78525284 185.42040902 385.1298008 185.39387894 C387.08658796 185.39398664 389.04350145 185.41450554 390.9998188 185.4573822 C401.95842 186.05415939 401.95842 186.05415939 411.30602646 181.30527115 C413.16429647 179.20995499 414.57835669 177.139532 416.12113762 174.77130318 C417.99904014 172.00141578 418.8768019 171.01078361 422 170 C424.62954949 169.80648337 427.12455512 169.71393953 429.75 169.75 C430.46865234 169.75894287 431.18730469 169.76788574 431.92773438 169.77709961 C440.36527336 169.96198211 446.02903372 170.97258917 452.30078125 176.9609375 C457.04794229 182.65753075 457.68926762 189.79114242 457.46875 197.00390625 C456.50275704 203.17821126 453.51638542 207.80272143 448.84375 211.8828125 C442.33816793 216.49464637 436.17462178 218.73100227 428.1953125 217.52734375 C420.96053175 215.78945158 416.18221472 210.92572376 412 205 C411.34 203.35 410.68 201.7 410 200 C344.66 200 279.32 200 212 200 C214.8820633 206.48464242 217.87089751 212.6153245 221.3515625 218.75585938 C223.24609783 222.19949785 224 223.97454096 224 228 C235.56705702 227.06401833 246.46218672 225.12882146 257.671875 222.12109375 C262.93719044 220.72346806 267.9114905 219.86366879 273.375 219.9375 C274.24898437 219.94652344 275.12296875 219.95554688 276.0234375 219.96484375 C277.00183594 219.98224609 277.00183594 219.98224609 278 220 C278.71391533 222.37971778 279.4271236 224.75961378 280.13671875 227.140625 C280.68832684 228.96767081 281.252244 230.79107507 281.83203125 232.609375 C282.09371094 233.43953125 282.35539062 234.2696875 282.625 235.125 C282.86476563 235.87007812 283.10453125 236.61515625 283.3515625 237.3828125 C284.21286833 240.85916734 284.55577395 244.44619163 285 248 C302.49 248 319.98 248 338 248 C338.33 246.02 338.66 244.04 339 242 C340.41796875 239.76953125 340.41796875 239.76953125 342.1875 237.8125 C342.75855469 237.15894531 343.32960938 236.50539062 343.91796875 235.83203125 C349.9313567 230.54070114 355.66295609 230.48607557 363.359375 230.64453125 C368.05822559 231.1033246 371.19497746 232.28347893 375 235 C375.9075 235.556875 376.815 236.11375 377.75 236.6875 C382.79362236 241.87122298 384.25524164 247.42128607 384.4375 254.5625 C384.1418085 263.01927699 381.9418471 268.91668035 376 275 C371.76234532 278.24373204 367.91809048 278.47494329 362.75 278.375 C361.99291748 278.36339844 361.23583496 278.35179687 360.45581055 278.33984375 C349.52562426 278.02040562 349.52562426 278.02040562 345 275 C343.33385379 273.06710624 341.93410219 271.05742195 340.515625 268.9375 C337.09037369 264.55882822 332.46877249 263.22425141 327.13671875 262.41015625 C320.64652507 261.77266109 314.13986087 261.85478844 307.625 261.875 C305.72041016 261.86919922 305.72041016 261.86919922 303.77734375 261.86328125 C302.56433594 261.86457031 301.35132813 261.86585938 300.1015625 261.8671875 C298.45148193 261.86887939 298.45148193 261.86887939 296.76806641 261.87060547 C293.91167627 261.87856093 293.91167627 261.87856093 291 263 C291.63073721 267.31762376 292.62524316 271.34039341 293.9375 275.5 C294.27652344 276.5828125 294.61554688 277.665625 294.96484375 278.78125 C295.64937289 280.90974814 296.36776147 283.02768188 297.12109375 285.1328125 C298.29260251 288.9545344 298.13705012 292.02554641 298 296 C289.7477157 299.70754802 281.33909497 302.59815293 272.74609375 305.39697266 C266.71350893 307.3791388 260.88632969 309.56988765 255.08203125 312.15234375 C253 313 253 313 251 313 C251.66 318.94 252.32 324.88 253 331 C269.1255402 331.07789532 285.25014577 331.10787689 301.37580681 331.07515812 C308.86408533 331.06115734 316.35165469 331.06378706 323.83984375 331.10620117 C330.37017026 331.14314693 336.89963183 331.14824344 343.42999566 331.11582941 C346.88498474 331.09977313 350.33835272 331.09916654 353.79320908 331.13676643 C357.6595662 331.17824586 361.52368133 331.14858291 365.39013672 331.11352539 C366.52302628 331.13653214 367.65591583 331.15953888 368.82313538 331.1832428 C376.68027505 331.02996536 380.47520657 328.78714026 385.97505379 323.21036434 C386.97740216 322.11623399 386.97740216 322.11623399 388 321 C388.9541982 320.0375493 389.91160323 319.078243 390.875 318.125 C392.177125 316.822875 393.47091613 315.51226544 394.75 314.1875 C399.80903346 311.51745456 405.71017616 312.73472783 411.0625 314.0625 C417.46786853 316.16769121 421.9931041 320.19034574 425.875 325.625 C429.16682455 332.57440737 430.46592325 338.92077404 428.27734375 346.50390625 C425.21636732 353.82794296 420.96920932 358.99641167 414 363 C408.94194985 364.9579549 403.1645685 364.25201661 398 363 C398 362.34 398 361.68 398 361 C396.91138672 360.87431641 396.91138672 360.87431641 395.80078125 360.74609375 C392.40489972 359.84147259 390.76496643 358.42624616 388.1875 356.0625 C387.39730469 355.35222656 386.60710937 354.64195312 385.79296875 353.91015625 C384 352 384 352 384 350 C383.071875 349.5359375 383.071875 349.5359375 382.125 349.0625 C380.75 348.375 379.375 347.6875 378 347 C375.58227158 346.89253593 373.19257728 346.84511278 370.7741394 346.84178162 C369.64451568 346.83437465 369.64451568 346.83437465 368.49207127 346.82681805 C365.95549122 346.81139633 363.41893657 346.80306982 360.88232422 346.79467773 C359.06924209 346.78510288 357.25616222 346.77509304 355.44308472 346.76467896 C350.50949056 346.73758127 345.57588678 346.71659809 340.64225912 346.69667697 C335.4905836 346.67484735 330.33893788 346.6474439 325.18728638 346.62062073 C315.42672868 346.57065285 305.66615447 346.52572924 295.90556443 346.48259836 C284.79567349 346.43326094 273.68581243 346.37832987 262.57595038 346.32291877 C239.71732813 346.20903588 216.85867721 346.10221061 194 346 C193.89028366 345.09248489 193.78056732 344.18496979 193.66752625 343.24995422 C193.25168622 339.82526667 192.83250232 336.40102061 192.41117859 332.977005 C192.23081765 331.50583048 192.05172237 330.03450013 191.87400818 328.56300354 C189.71999423 310.74391654 186.15267949 293.88666219 180.5625 276.8125 C180.02363159 275.16447388 180.02363159 275.16447388 179.47387695 273.4831543 C177.23766983 266.92012322 174.55900676 260.85592982 171.24975586 254.76049805 C169.91764566 251.81809328 169.39319246 249.19406384 169 246 C168.34 246 167.68 246 167 246 C166.76418213 245.45037598 166.52836426 244.90075195 166.28540039 244.33447266 C163.90516714 238.87219465 161.31971231 233.58921574 158.4375 228.375 C158.0142041 227.60736328 157.5909082 226.83972656 157.15478516 226.04882812 C153.67380691 219.88695054 149.72715665 214.19336535 145.40405273 208.59521484 C142 204.17678273 142 204.17678273 142 202 C141.34 202 140.68 202 140 202 C139.02924195 200.59356404 138.06644218 199.18076809 137.15087891 197.73779297 C135.22275726 194.82638655 132.95447646 192.21321561 130.6875 189.5625 C130.2032959 188.99337891 129.7190918 188.42425781 129.22021484 187.83789062 C125.66224823 183.69107639 121.94785821 179.77785474 118 176 C117.23558594 175.22140625 116.47117187 174.4428125 115.68359375 173.640625 C112.87355449 170.87557909 109.95075311 168.28776478 106.9375 165.75 C106.37313232 165.27401367 105.80876465 164.79802734 105.22729492 164.30761719 C99.64909695 159.64343157 93.88749414 155.2686346 88 151 C87.08863281 150.33742187 86.17726563 149.67484375 85.23828125 148.9921875 C80.95892064 145.93458754 76.80575467 143.14994288 72 141 C72 140.34 72 139.68 72 139 C71.44183594 138.88914063 70.88367188 138.77828125 70.30859375 138.6640625 C67.62975135 137.8934987 65.49265366 136.74173303 63.0625 135.375 C62.08667969 134.83617187 61.11085938 134.29734375 60.10546875 133.7421875 C58.05888198 132.59403945 56.01955369 131.43284169 53.98828125 130.2578125 C47.23330303 126.44383483 40.52073133 123.54914953 33.17529297 121.12890625 C29.57881154 119.94129923 26.16666118 118.63910491 22.7421875 117.015625 C17.30065361 114.54978412 11.68825593 113.239502 5.875 111.9375 C4.17670044 111.55126465 4.17670044 111.55126465 2.4440918 111.15722656 C-10.1286614 108.39151881 -22.81887039 106.77617809 -35.625 105.5546875 C-36.31956299 105.48088867 -37.01412598 105.40708984 -37.72973633 105.33105469 C-39.53014211 105.14156192 -41.33339048 104.9796099 -43.13671875 104.8203125 C-47.09043926 103.68759585 -47.92305835 102.57495539 -50 99 C-50.55519954 95.11529094 -50.46483314 91.27255423 -50.390625 87.35546875 C-50.38496521 86.2305452 -50.37930542 85.10562164 -50.37347412 83.9466095 C-50.35111468 80.35980366 -50.30091667 76.77400304 -50.25 73.1875 C-50.22993455 70.75326965 -50.21168386 68.31902362 -50.1953125 65.88476562 C-50.15465593 59.92247988 -50.07635897 53.96236278 -50 48 C-39.11 48 -28.22 48 -17 48 C-16.67 46.02 -16.34 44.04 -16 42 C-15.28526831 40.10290547 -14.51156095 38.22722368 -13.6875 36.375 C-11.98314529 32.41273947 -10.44260406 28.48181785 -9.125 24.375 C-6.45846514 16.11094568 -3.19270755 8.07145167 0 0 Z " fill="#FDFDFD" transform="translate(570,0)"/>
<path d="M0 0 C1.49251534 -0.00450165 1.49251534 -0.00450165 3.0151825 -0.00909424 C4.09016495 0.00325256 5.1651474 0.01559937 6.27270508 0.02832031 C7.38148514 0.03019348 8.4902652 0.03206665 9.63264465 0.03399658 C11.98217772 0.04072501 14.33169943 0.05465505 16.68115234 0.07519531 C20.26060518 0.10617158 23.83961623 0.11614999 27.41918945 0.12207031 C29.70369997 0.13124823 31.98820605 0.14162649 34.27270508 0.15332031 C35.33756638 0.15757019 36.40242767 0.16182007 37.4995575 0.16619873 C43.10676944 0.2194962 48.5873282 0.30171631 54.10473633 1.35644531 C57.89287323 5.41388105 58.53621372 8.54905166 58.54223633 13.98144531 C59.48886795 43.14189094 67.96705554 73.41094313 81.10473633 99.35644531 C81.77690186 100.69690918 81.77690186 100.69690918 82.46264648 102.06445312 C87.90324228 112.85531314 93.57849603 123.29734488 100.41723633 133.27050781 C103.10473633 137.20844184 103.10473633 137.20844184 103.10473633 139.35644531 C104.09473633 139.68644531 105.08473633 140.01644531 106.10473633 140.35644531 C107.46411133 141.88769531 107.46411133 141.88769531 108.85473633 143.85644531 C109.37422852 144.57445312 109.8937207 145.29246094 110.42895508 146.03222656 C110.98196289 146.79921875 111.5349707 147.56621094 112.10473633 148.35644531 C113.28350887 149.92553989 114.47103256 151.48809858 115.66723633 153.04394531 C116.20477539 153.7490625 116.74231445 154.45417969 117.29614258 155.18066406 C119.42439326 157.7410002 121.72975811 160.0217779 124.10473633 162.35644531 C125.30693417 163.57875649 126.50731216 164.80285907 127.70629883 166.02832031 C135.1809612 173.62451437 142.69275814 180.7929964 151.10473633 187.35644531 C152.22068251 188.2816257 153.33379588 189.21022994 154.44458008 190.14160156 C161.36924694 195.90010758 168.49249635 201.09850026 176.10473633 205.91894531 C176.89364258 206.41950439 177.68254883 206.92006348 178.49536133 207.43579102 C182.91354412 210.17602237 187.26841401 212.44635525 192.10473633 214.35644531 C192.10473633 215.01644531 192.10473633 215.67644531 192.10473633 216.35644531 C192.98516602 216.46214844 193.8655957 216.56785156 194.77270508 216.67675781 C198.21302785 217.37853526 200.417898 218.44517271 203.41723633 220.23144531 C208.15813227 223.05188864 212.88123014 224.6985886 218.10473633 226.35644531 C219.75442153 226.91396486 221.40284001 227.47524495 223.05004883 228.04003906 C243.91700296 235.12821075 264.18583349 240.14826216 286.20800781 241.71044922 C287.2026001 241.78183105 288.19719238 241.85321289 289.22192383 241.92675781 C290.11508301 241.98621582 291.00824219 242.04567383 291.9284668 242.10693359 C294.10473633 242.35644531 294.10473633 242.35644531 296.10473633 243.35644531 C296.10473633 244.01644531 296.10473633 244.67644531 296.10473633 245.35644531 C296.76473633 245.35644531 297.42473633 245.35644531 298.10473633 245.35644531 C299.18092998 248.58502625 299.22526129 250.90183811 299.21826172 254.29663086 C299.21818619 255.51767014 299.21811066 256.73870941 299.21803284 257.99674988 C299.21029091 259.9749749 299.21029091 259.9749749 299.20239258 261.99316406 C299.20052713 263.35651091 299.19910383 264.71985842 299.19810486 266.08320618 C299.19428965 269.66873022 299.18446788 273.25421366 299.17340088 276.83972168 C299.16316533 280.49958751 299.15860264 284.15945991 299.15356445 287.81933594 C299.14284471 294.99839089 299.12578025 302.17741241 299.10473633 309.35644531 C279.80419307 309.45117191 279.80419307 309.45117191 270.97973633 308.85644531 C270.20243164 308.80875 269.42512695 308.76105469 268.62426758 308.71191406 C266.78411482 308.59832439 264.94436573 308.47821747 263.10473633 308.35644531 C262.99774414 309.32839844 262.89075195 310.30035156 262.78051758 311.30175781 C262.13603791 315.79167049 260.76007635 319.95156132 259.29223633 324.23144531 C259.02306396 325.02719971 258.7538916 325.8229541 258.4765625 326.64282227 C256.87637724 331.30664277 255.18725124 335.88213324 253.06176758 340.33691406 C251.65458933 343.30634735 250.39037221 346.33248485 249.10473633 349.35644531 C233.14351532 345.34190455 217.31773526 341.0316279 201.55786133 336.28613281 C194.49166544 334.15947554 187.39505859 332.14497926 180.28491211 330.1706543 C174.21184561 328.46355459 174.21184561 328.46355459 173.10473633 327.35644531 C172.4026876 320.07888297 173.75071227 313.43204637 175.54223633 306.41894531 C177.4009202 299.05189298 178.62059635 291.94742952 179.10473633 284.35644531 C178.35111816 284.06527832 177.5975 283.77411133 176.82104492 283.47412109 C173.28619629 282.01964176 170.03597815 280.13410149 166.72973633 278.23144531 C161.93684799 275.49636115 157.12765503 272.81989921 152.23266602 270.27172852 C145.764569 266.90397909 139.69888118 263.26668819 133.69067383 259.11816406 C131.10968952 257.30756029 131.10968952 257.30756029 128.26879883 255.75097656 C127.5546582 255.29078125 126.84051758 254.83058594 126.10473633 254.35644531 C126.10473633 253.69644531 126.10473633 253.03644531 126.10473633 252.35644531 C125.15598633 252.06769531 124.20723633 251.77894531 123.22973633 251.48144531 C120.10473633 250.35644531 120.10473633 250.35644531 118.10473633 248.35644531 C112.75838706 248.32795677 109.84181652 252.03381559 106.29223633 255.54394531 C105.04606322 256.73799218 103.79738714 257.92943264 102.54614258 259.11816406 C101.95075684 259.6845459 101.35537109 260.25092773 100.74194336 260.83447266 C97.72571121 263.63840812 94.51581375 266.06024385 91.10473633 268.35644531 C90.05672852 269.09701172 90.05672852 269.09701172 88.98754883 269.85253906 C83.74822812 273.39339866 83.74822812 273.39339866 81.35742188 273.25610352 C77.94066148 271.8915471 75.72158893 269.33953444 73.20239258 266.74707031 C72.64281357 266.18324646 72.08323456 265.61942261 71.50669861 265.03851318 C69.71970401 263.23475252 67.9433976 261.42086829 66.16723633 259.60644531 C64.97587521 258.40002826 63.78382503 257.19429127 62.59106445 255.98925781 C60.38826581 253.76200643 58.18962348 251.53082218 55.99560547 249.29492188 C54.13632498 247.40044972 52.26603232 245.51992582 50.38647461 243.64526367 C47.80919459 241.05998653 45.36499573 238.37702772 42.91723633 235.66894531 C37.81446019 230.05439927 32.5229101 224.66884129 27.10473633 219.35644531 C28.43806966 216.68977865 29.77140299 214.02311198 31.10473633 211.35644531 C31.76473633 211.35644531 32.42473633 211.35644531 33.10473633 211.35644531 C33.35094727 210.80085937 33.5971582 210.24527344 33.85083008 209.67285156 C35.34478039 206.91299943 37.15532041 204.70327672 39.16723633 202.29394531 C39.96258789 201.33488281 40.75793945 200.37582031 41.57739258 199.38769531 C42.41141602 198.38738281 43.24543945 197.38707031 44.10473633 196.35644531 C45.77583001 194.33919197 47.4408789 192.31719594 49.10473633 190.29394531 C50.21848633 188.94623047 50.21848633 188.94623047 51.35473633 187.57128906 C53.12538427 185.48482298 53.12538427 185.48482298 54.10473633 183.35644531 C53.24235441 181.95278113 52.36404626 180.55889914 51.47973633 179.16894531 C50.9924707 178.39164063 50.50520508 177.61433594 50.00317383 176.81347656 C46.54292618 172.33509021 43.94287719 169.6645276 38.35064602 168.72723961 C36.91797741 168.69995498 35.48462759 168.69975404 34.05186462 168.7215271 C32.86115281 168.70982717 32.86115281 168.70982717 31.64638621 168.69789088 C28.99522604 168.67799939 26.34550591 168.69372345 23.69433594 168.70947266 C21.79024927 168.7026953 19.88616915 168.69379151 17.98210144 168.68292236 C12.81683285 168.66013807 7.65206387 168.66896148 2.4867866 168.68481779 C-2.91877031 168.69747936 -8.32428454 168.68573613 -13.72984314 168.67788696 C-22.80630167 168.66879195 -31.88255674 168.68077532 -40.95898438 168.70458984 C-51.45423173 168.73180894 -61.94899356 168.72298054 -72.44422919 168.69545782 C-81.45501172 168.67277338 -90.46564804 168.66956319 -99.47644991 168.68265116 C-104.85837956 168.69044824 -110.24008092 168.69147993 -115.62199593 168.67496872 C-120.6807639 168.6605327 -125.73890528 168.67053 -130.79760551 168.69944 C-132.65477838 168.70605508 -134.51200393 168.70414595 -136.36915588 168.69312668 C-138.90327588 168.67947607 -141.43538409 168.69657908 -143.96937561 168.7215271 C-144.70556265 168.71037349 -145.4417497 168.69921988 -146.20024544 168.68772829 C-150.11454838 168.76255972 -151.73105149 169.21934892 -154.77759457 171.76282692 C-155.47642537 172.61872099 -156.17525618 173.47461506 -156.89526367 174.35644531 C-157.49209961 175.06027344 -158.08893555 175.76410156 -158.70385742 176.48925781 C-159.79130896 177.81923452 -160.87464112 179.15258991 -161.95385742 180.48925781 C-166.5434296 184.90337351 -171.04625831 185.78752881 -177.27026367 185.79394531 C-185.30735723 185.62059624 -189.72454914 184.10439791 -195.70776367 178.91894531 C-201.5359375 172.09165597 -202.57508459 166.13117093 -201.89526367 157.35644531 C-200.3536473 148.56400616 -196.71758931 143.33785931 -189.77026367 137.91894531 C-184.22110247 135.06438789 -177.54711735 135.60750583 -171.59057617 136.82910156 C-165.97569154 138.65339287 -160.82121625 142.22834587 -157.69995117 147.29785156 C-156.89526367 149.35644531 -156.89526367 149.35644531 -156.89526367 153.35644531 C-93.86526367 153.35644531 -30.83526367 153.35644531 34.10473633 153.35644531 C31.46473633 148.07644531 28.82473633 142.79644531 26.10473633 137.35644531 C23.43806966 132.02311198 20.77140299 126.68977865 18.10473633 121.35644531 C12.17043723 121.16132663 6.99351951 121.79808623 1.22973633 123.16894531 C0.44034668 123.3490918 -0.34904297 123.52923828 -1.16235352 123.71484375 C-5.3421742 124.68649513 -9.4362451 125.78104177 -13.52026367 127.10644531 C-17.78999685 128.47780059 -21.42685415 128.60469029 -25.89526367 128.35644531 C-28.99714199 122.59581416 -31.00969833 117.13172949 -32.58276367 110.79394531 C-32.79481445 109.98248047 -33.00686523 109.17101562 -33.2253418 108.33496094 C-34.42763976 103.63575848 -35.20178331 99.21080787 -35.89526367 94.35644531 C-63.12026367 94.85144531 -63.12026367 94.85144531 -90.89526367 95.35644531 C-92.21526367 97.99644531 -93.53526367 100.63644531 -94.89526367 103.35644531 C-96.71166992 105.19628906 -96.71166992 105.19628906 -98.45776367 106.29394531 C-99.03655273 106.67421875 -99.6153418 107.05449219 -100.21166992 107.44628906 C-106.88146677 111.0520029 -116.13520949 110.0804489 -123.27026367 108.29394531 C-128.34825885 106.53236067 -131.77667428 103.71155995 -134.89526367 99.35644531 C-137.81275218 92.88723165 -138.0382842 84.72319441 -136.24291992 77.86425781 C-133.88908309 72.02512609 -129.67226159 65.24494427 -123.89526367 62.35644531 C-121.0071955 62.2041334 -118.1593897 62.12493572 -115.27026367 62.10644531 C-114.48780273 62.08582031 -113.7053418 62.06519531 -112.89916992 62.04394531 C-107.03247646 62.00502861 -100.96994243 62.58576731 -96.40136719 66.70263672 C-89.89526367 74.24591023 -89.89526367 74.24591023 -89.89526367 78.35644531 C-66.63026367 78.85144531 -66.63026367 78.85144531 -42.89526367 79.35644531 C-44.16439224 70.60567766 -44.16439224 70.60567766 -46.89526367 62.35644531 C-46.96560136 60.48264926 -46.97956587 58.6064343 -46.95776367 56.73144531 C-46.94874023 55.72855469 -46.9397168 54.72566406 -46.93041992 53.69238281 C-46.91301758 52.53609375 -46.91301758 52.53609375 -46.89526367 51.35644531 C-39.24463671 47.32741691 -31.7995676 43.76424653 -23.51245117 41.19238281 C-21.28868865 40.48210642 -19.20914208 39.68595295 -17.08276367 38.73144531 C-13.73798623 37.28860014 -10.40211158 36.32757243 -6.89526367 35.35644531 C-6.86821457 32.29388571 -6.84840069 29.23156671 -6.83276367 26.16894531 C-6.82438477 25.30462891 -6.81600586 24.4403125 -6.80737305 23.54980469 C-6.79120111 19.3289298 -6.91064649 15.48281808 -7.89526367 11.35644531 C-8.56630331 4.31052914 -8.56630331 4.31052914 -6.68559265 1.63653564 C-4.33033999 -0.04747673 -2.88296221 -0.01200868 0 0 Z " fill="#FDFDFD" transform="translate(201.895263671875,364.6435546875)"/>
<path d="M0 0 C0.30292969 1.00417969 0.60585938 2.00835937 0.91796875 3.04296875 C5.08118182 17.82720386 5.08118182 17.82720386 11.60546875 31.59375 C13.63045624 35.08784605 13.66170308 38.00809638 14 42 C14.66 42 15.32 42 16 42 C16.433125 42.9590625 16.433125 42.9590625 16.875 43.9375 C17.82823451 46.15206079 17.82823451 46.15206079 20 47 C25.5870455 47.35909177 31.08232624 46.94817606 36.62133789 46.23486328 C39.02557681 45.99747461 41.36234574 45.95087767 43.77734375 45.96875 C44.57261475 45.97326172 45.36788574 45.97777344 46.18725586 45.98242188 C46.78546143 45.98822266 47.38366699 45.99402344 48 46 C48.10134036 53.61707204 48.17144061 61.23397053 48.21972656 68.8515625 C48.23985375 71.44342546 48.26715816 74.03524296 48.30175781 76.62695312 C48.35022501 80.35037449 48.37295816 84.07319599 48.390625 87.796875 C48.41127014 88.95741394 48.43191528 90.11795288 48.45318604 91.31365967 C48.45348816 92.39447815 48.45379028 93.47529663 48.45410156 94.58886719 C48.46298401 95.53928894 48.47186646 96.48971069 48.48101807 97.46893311 C47.85106147 100.78369902 46.63190959 101.94903675 44 104 C41.32320007 104.5719154 38.95313976 104.91961736 36.25 105.125 C34.70829588 105.27696421 33.16662997 105.42931655 31.625 105.58203125 C30.08336337 105.72168614 28.54169777 105.86102165 27 106 C6.89182967 107.97490959 -12.00391564 113.23175035 -31 120 C-32.20269531 120.42152344 -33.40539062 120.84304687 -34.64453125 121.27734375 C-57.08883599 129.49677471 -78.36674021 142.14427551 -97 157 C-98.7695829 158.39741825 -100.54018698 159.79354594 -102.3125 161.1875 C-102.96863281 161.71730469 -103.62476563 162.24710938 -104.30078125 162.79296875 C-106 164 -106 164 -109 165 C-109.33 165.99 -109.66 166.98 -110 168 C-111.4609375 169.4375 -111.4609375 169.4375 -113.375 171 C-136.8599268 190.99789831 -154.22559044 217.5177582 -168 244.875 C-168.32049316 245.51115234 -168.64098633 246.14730469 -168.97119141 246.80273438 C-183.4730607 275.90906324 -191.23286986 306.88245635 -193.52246094 339.24926758 C-193.61203064 340.51265457 -193.70160034 341.77604156 -193.79388428 343.07771301 C-193.86190247 344.04206772 -193.92992065 345.00642242 -194 346 C-194.96337091 345.99870118 -195.92674183 345.99740236 -196.9193058 345.99606419 C-220.35484061 345.96606712 -243.79009582 345.97619939 -267.22559547 346.02846622 C-278.55884654 346.05281203 -289.8918301 346.06409426 -301.22509766 346.04467773 C-311.10263076 346.0277883 -320.97978974 346.03535383 -330.85727346 346.07234758 C-336.08798948 346.09108229 -341.3180727 346.09752851 -346.54878616 346.07469368 C-351.47223875 346.05358648 -356.39453167 346.06517737 -361.31788254 346.10184479 C-363.12464095 346.10953814 -364.93149583 346.10528653 -366.7381897 346.08818626 C-375.93679427 345.64616829 -375.93679427 345.64616829 -384.34864426 348.52291679 C-385.88287031 350.28850041 -386.92247397 351.93538468 -388 354 C-392.56152137 359.02936971 -396.46019731 362.6247559 -403.31640625 363.3515625 C-415.59798855 363.63808934 -415.59798855 363.63808934 -421 360 C-427.1450162 353.5458006 -431.091553 347.11012819 -431.375 338.0625 C-431.12167171 330.23855332 -429.63792016 325.44087986 -424.25 319.6875 C-419.36618325 315.16774959 -414.8615715 312.9268625 -408.1875 312.4375 C-402.00488535 312.67995548 -397.79255414 315.24336502 -393 319 C-392.29687683 319.89789749 -391.59375366 320.79579498 -390.86932373 321.72090149 C-386.28514342 327.26633588 -382.41038999 330.12864643 -375.13391113 331.00765991 C-368.33989216 331.4675056 -361.54967088 331.42143554 -354.74406528 331.31726241 C-351.30071084 331.27627557 -347.85773013 331.29818734 -344.41424561 331.31306458 C-337.91165496 331.33178681 -331.41064568 331.29498524 -324.90832973 331.23759204 C-317.49821407 331.17493733 -310.08850189 331.17515421 -302.67817163 331.18031728 C-287.45151905 331.18953513 -272.22623244 331.11865836 -257 331 C-256.67 325.06 -256.34 319.12 -256 313 C-258.908125 311.88625 -258.908125 311.88625 -261.875 310.75 C-265.87733853 309.21627286 -269.85690912 307.64985329 -273.8125 306 C-279.6096064 303.65628537 -285.58278616 301.87492147 -291.55859375 300.05078125 C-293.71370122 299.39275184 -295.86230455 298.71256515 -298 298 C-298.56669593 289.67539125 -296.88842188 282.43078771 -294.6875 274.4375 C-294.37876953 273.27025391 -294.07003906 272.10300781 -293.75195312 270.90039062 C-292.47351602 266.123073 -291.1702291 261.37320623 -289.5625 256.6953125 C-287.16270712 249.70949857 -285.29360083 242.55077484 -283.3125 235.4375 C-282.89278163 233.93679203 -282.47286137 232.4361405 -282.05273438 230.93554688 C-281.03282761 227.29101118 -280.01565557 223.64572259 -279 220 C-271.28380468 219.55202435 -264.77324517 220.84643167 -257.375 222.9375 C-247.80663231 225.50437016 -238.91314325 226.9708437 -229 227 C-228.63648438 226.03320312 -228.27296875 225.06640625 -227.8984375 224.0703125 C-224.88957405 216.22465816 -221.57847689 209.08396261 -217 202 C-216.67 201.34 -216.34 200.68 -216 200 C-215.34 200 -214.68 200 -214 200 C-213.814375 199.21625 -213.62875 198.4325 -213.4375 197.625 C-211.76676078 193.41183154 -209.46686569 190.19662782 -206.8125 186.546875 C-204.71017495 183.59274583 -202.85884459 180.53438691 -201.04296875 177.3984375 C-200.52669922 176.70621094 -200.52669922 176.70621094 -200 176 C-199.34 176 -198.68 176 -198 176 C-197.31974363 174.00458132 -196.65509503 172.00382009 -196 170 C-195.731875 169.29875 -195.46375 168.5975 -195.1875 167.875 C-194.78148311 165.83466043 -194.78148311 165.83466043 -196.4375 163.875 C-197.2109375 162.946875 -197.2109375 162.946875 -198 162 C-198 161.34 -198 160.68 -198 160 C-198.66 160 -199.32 160 -200 160 C-201.35097374 158.48848454 -202.62927345 156.91186687 -203.875 155.3125 C-208.01223729 150.1275208 -212.37717225 145.24397421 -216.92529297 140.41723633 C-224 132.87940214 -224 132.87940214 -224 128 C-223.34 128 -222.68 128 -222 128 C-221.74259033 127.25741943 -221.48518066 126.51483887 -221.2199707 125.74975586 C-219.95138836 122.89043167 -218.64547007 121.23723218 -216.48046875 119.00390625 C-215.78759766 118.28009766 -215.09472656 117.55628906 -214.38085938 116.81054688 C-213.65705078 116.06869141 -212.93324219 115.32683594 -212.1875 114.5625 C-210.76273821 113.08616312 -209.3395279 111.60832719 -207.91796875 110.12890625 C-207.2429834 109.42910645 -206.56799805 108.72930664 -205.87255859 108.00830078 C-204.19959517 106.21406387 -202.64473882 104.37958722 -201.11328125 102.46484375 C-200.41589844 101.65144531 -199.71851563 100.83804688 -199 100 C-198.34 100 -197.68 100 -197 100 C-196.62875 99.14148438 -196.62875 99.14148438 -196.25 98.265625 C-194.80683801 95.64989389 -193.11783778 93.85226544 -191 91.75 C-190.29875 91.04359375 -189.5975 90.3371875 -188.875 89.609375 C-187 88 -187 88 -185 88 C-184.78085937 87.43667969 -184.56171875 86.87335938 -184.3359375 86.29296875 C-182.56914036 83.2604836 -180.34551046 81.5188121 -177.625 79.3125 C-176.66851562 78.52488281 -175.71203125 77.73726563 -174.7265625 76.92578125 C-170.65189697 74.0478298 -170.65189697 74.0478298 -168 74 C-155.74414 80.45489356 -144.93739923 92.27758636 -134.734375 101.51171875 C-132.86088863 103.18004565 -132.86088863 103.18004565 -130 105 C-126.35474778 104.70303444 -124.37883531 102.84271674 -121.6875 100.5 C-109.20232693 90.28320867 -94.29237023 83.30603206 -80 76 C-79.22897949 75.59990723 -78.45795898 75.19981445 -77.66357422 74.78759766 C-72.22916667 72 -72.22916667 72 -70 72 C-71.50433143 62.09342715 -73.33466306 52.36745061 -75.6875 42.625 C-77.53035612 34.92577901 -78.75449409 27.94733772 -78 20 C-73.28088491 17.88319529 -68.3849538 16.81377899 -63.375 15.625 C-57.11560311 14.10214236 -51.09969979 12.43714637 -45.08984375 10.1015625 C-30.95400806 5.06198517 -15.08329862 -0.29099611 0 0 Z " fill="#FDFDFD" transform="translate(453,0)"/>
<path d="M0 0 C19.47 0 38.94 0 59 0 C59.1875 14.6875 59.1875 14.6875 59.20776367 19.2956543 C59.23588135 20.50133057 59.26399902 21.70700684 59.29296875 22.94921875 C59.3086792 24.17987061 59.32438965 25.41052246 59.34057617 26.6784668 C60.1736094 30.87447458 61.71484763 32.34496009 65 35 C67.93980297 36.26099676 67.93980297 36.26099676 71.125 37 C75.4151093 38.19757535 79.36028615 39.50827373 83.375 41.4375 C90.02823927 44.61134155 96.98658308 46.77577196 104 49 C103.61240405 57.6044124 101.72988968 65.33988628 99.25 73.5625 C98.51750715 76.04796441 97.78573575 78.53364156 97.0546875 81.01953125 C96.69987305 82.21658691 96.34505859 83.41364258 95.97949219 84.64697266 C94.91924884 88.27642983 93.92710021 91.91947688 92.95581055 95.57348633 C91.21270592 102.10554929 89.24406193 108.51856128 86.9375 114.875 C86.70401855 115.5359668 86.47053711 116.19693359 86.22998047 116.87792969 C84.77656206 120.73418506 83.28958778 123.47050636 80 126 C74.48718516 126.70003998 70.54155811 125.96017808 65.3125 124.1875 C55.8333748 121.00893892 45.89189618 120.15607458 36 119 C35.88317871 119.57476074 35.76635742 120.14952148 35.64599609 120.74169922 C34.94937228 123.17698654 33.97953239 124.97143548 32.6640625 127.1328125 C32.18171143 127.93082275 31.69936035 128.72883301 31.20239258 129.55102539 C30.68185303 130.40043701 30.16131348 131.24984863 29.625 132.125 C29.09350342 133.00212646 28.56200684 133.87925293 28.0144043 134.78295898 C25.29108835 139.27081292 22.54416534 143.74404298 19.79296875 148.21484375 C19.2913623 149.03130371 18.78975586 149.84776367 18.27294922 150.68896484 C17.31567545 152.24473475 16.35517487 153.79852481 15.39111328 155.35009766 C14.95911621 156.05054199 14.52711914 156.75098633 14.08203125 157.47265625 C13.51319214 158.38930054 13.51319214 158.38930054 12.93286133 159.32446289 C11.84469502 161.15726858 11.84469502 161.15726858 11 164 C10.34 164 9.68 164 9 164 C8.79375 164.804375 8.5875 165.60875 8.375 166.4375 C6.84304586 170.4066539 4.78299776 173.49057286 2.33984375 176.94921875 C0.84084175 179.05389843 0.84084175 179.05389843 0 182 C0.66 182 1.32 182 2 182 C2 182.99 2 183.98 2 185 C2.5671875 185.23460937 3.134375 185.46921875 3.71875 185.7109375 C11.44535263 190.0769972 17.25158093 199.43978963 22.5625 206.4375 C23.34947266 207.46641357 23.34947266 207.46641357 24.15234375 208.51611328 C24.63960937 209.16950684 25.126875 209.82290039 25.62890625 210.49609375 C26.06275635 211.07544678 26.49660645 211.6547998 26.94360352 212.25170898 C28.12395906 214.20514694 28.71874918 215.733061 29 218 C27.19921875 220.359375 27.19921875 220.359375 24.6875 222.75 C23.86636719 223.54921875 23.04523438 224.3484375 22.19921875 225.171875 C20 227 20 227 18 227 C17.78601563 227.54011719 17.57203125 228.08023438 17.3515625 228.63671875 C15.51341523 231.85082019 13.00200241 234.24742445 10.375 236.8125 C9.63056641 237.5559668 9.63056641 237.5559668 8.87109375 238.31445312 C6.09266978 241.06106308 3.24031579 243.66661997 0.265625 246.19921875 C-3.061286 249.07816933 -6.1211598 252.13509664 -9.1640625 255.3125 C-10.05867187 256.24191406 -10.95328125 257.17132812 -11.875 258.12890625 C-13.2610484 259.57598803 -14.64687785 261.02342298 -16.01464844 262.48779297 C-17.36038765 263.9242295 -18.73069188 265.33752782 -20.1015625 266.75 C-20.89900879 267.59046875 -21.69645508 268.4309375 -22.51806641 269.296875 C-25 271 -25 271 -28.12963867 270.87280273 C-38.7174724 267.653316 -48.27863356 256.44486918 -56.1015625 249 C-58.07671783 247.13012807 -58.07671783 247.13012807 -61 245 C-64.01760287 245.32270452 -65.94522049 246.46995368 -68.3203125 248.29296875 C-68.93366455 248.75598389 -69.5470166 249.21899902 -70.17895508 249.69604492 C-70.8211499 250.1882251 -71.46334473 250.68040527 -72.125 251.1875 C-87.87308394 263 -87.87308394 263 -92 263 C-92 263.66 -92 264.32 -92 265 C-97.6875 268.0625 -97.6875 268.0625 -99.44946289 269.00634766 C-102.49718087 270.64102903 -105.53281384 272.29224182 -108.546875 273.98828125 C-109.66578125 274.61089844 -110.7846875 275.23351562 -111.9375 275.875 C-112.95714844 276.44992187 -113.97679687 277.02484375 -115.02734375 277.6171875 C-118.06933241 279.03225187 -120.68137082 279.6142279 -124 280 C-122.42771992 290.29128781 -120.57699478 300.32040067 -117.76953125 310.3515625 C-116.71343519 315.35863722 -115.99250038 320.07260942 -118.4375 324.75 C-125.31578251 330.78946757 -134.99208977 332.57437598 -143.625 334.875 C-144.89593506 335.21942139 -146.16687012 335.56384277 -147.47631836 335.91870117 C-151.3145269 336.95732403 -155.15671597 337.98031223 -159 339 C-160.12132324 339.2976123 -161.24264648 339.59522461 -162.39794922 339.90185547 C-172.91194703 342.68274918 -183.44617918 345.37438191 -194 348 C-204.90689268 318.65458453 -204.90689268 318.65458453 -209 307 C-218.17846286 307.55039047 -218.17846286 307.55039047 -227.3125 308.5625 C-230.13479351 308.89734838 -232.91458199 309.21415781 -235.75 309.375 C-236.46671875 309.42398437 -237.1834375 309.47296875 -237.921875 309.5234375 C-241.17391631 308.70431431 -242.17240259 306.72534216 -244 304 C-244.48774719 301.2170105 -244.48774719 301.2170105 -244.4699707 298.15576172 C-244.47289627 297.00461884 -244.47582184 295.85347595 -244.47883606 294.66744995 C-244.46132797 293.43398834 -244.44381989 292.20052673 -244.42578125 290.9296875 C-244.42249313 289.65650665 -244.41920502 288.38332581 -244.41581726 287.07156372 C-244.40540056 284.38294119 -244.38769121 281.6956593 -244.35668945 279.00732422 C-244.31703596 275.56287318 -244.29906537 272.11876947 -244.28938007 268.67411613 C-244.27940594 265.38425948 -244.25916943 262.09449063 -244.23828125 258.8046875 C-244.23089432 257.56717743 -244.22350739 256.32966736 -244.21589661 255.05465698 C-244.20306137 253.90981842 -244.19022614 252.76497986 -244.17700195 251.58544922 C-244.16715775 250.57682831 -244.15731354 249.5682074 -244.14717102 248.52902222 C-244 246 -244 246 -243 243 C-239.96243748 240.97495832 -239.31392932 240.7499196 -235.89453125 240.69140625 C-234.67938843 240.65708496 -234.67938843 240.65708496 -233.43969727 240.62207031 C-232.57272217 240.60241211 -231.70574707 240.58275391 -230.8125 240.5625 C-221.60951302 240.21643012 -212.99211029 239.05539713 -204 237 C-203.17854492 236.8138916 -202.35708984 236.6277832 -201.51074219 236.43603516 C-195.32403682 235.02248611 -189.15967772 233.52647569 -183 232 C-181.90945313 231.73485596 -181.90945313 231.73485596 -180.796875 231.46435547 C-169.93337224 228.81326689 -160.03959188 225.06572627 -150.07250977 220.04394531 C-148.08763384 219.0441421 -146.09765148 218.05546057 -144.10546875 217.0703125 C-122.69879746 206.4572833 -101.14448003 194.534531 -84.30859375 177.234375 C-82 175 -82 175 -80 175 C-80 174.34 -80 173.68 -80 173 C-79.34 173 -78.68 173 -78 173 C-78 172.34 -78 171.68 -78 171 C-76.37518763 169.27036103 -74.71641336 167.63658018 -73 166 C-66.79192312 160.02797167 -61.21291424 153.85964972 -56 147 C-55.41089844 146.23945312 -54.82179688 145.47890625 -54.21484375 144.6953125 C-49.36390316 138.24799018 -45.02871339 131.48447278 -40.6875 124.6875 C-39.77073486 123.25422363 -39.77073486 123.25422363 -38.83544922 121.79199219 C-35.98199663 117.28754001 -33.24544535 112.83946165 -31 108 C-30.34 108 -29.68 108 -29 108 C-28.9175 107.319375 -28.835 106.63875 -28.75 105.9375 C-27.97762246 102.91235462 -26.69636109 100.66182211 -25.1015625 98 C-23.46042416 95.02034457 -22.28762882 91.89695206 -21.06640625 88.7265625 C-19.94136254 85.85007711 -18.7234107 83.02341838 -17.5 80.1875 C-15.27934507 74.88790019 -13.53099161 69.53075277 -11.90234375 64.0234375 C-11.13959226 61.4677247 -10.31465916 58.95535581 -9.4375 56.4375 C-3.30209897 38.09762556 -1.67178378 19.22551345 0 0 Z " fill="#FDFDFD" transform="translate(764,366)"/>
<path d="M0 0 C18.30744319 -0.20054405 18.30744319 -0.20054405 26.109375 -0.24414062 C31.43384705 -0.27403427 36.75788933 -0.30940259 42.08203125 -0.37719727 C46.37440957 -0.43151218 50.66632709 -0.46141928 54.95902252 -0.47438622 C56.59694932 -0.48362715 58.23485079 -0.50167292 59.87258148 -0.52865028 C62.16658575 -0.56493624 64.45868476 -0.56994592 66.75292969 -0.56762695 C68.05864929 -0.57873001 69.3643689 -0.58983307 70.70965576 -0.60127258 C74 0 74 0 76.37823486 2.35749817 C81.1892545 10.1965668 82.30687461 19.74991419 83.25 28.75 C83.33008301 29.49773682 83.41016602 30.24547363 83.49267578 31.01586914 C84.27411843 39.71780413 84 48.17896014 84 57 C56.28 57 28.56 57 0 57 C0 38.19 0 19.38 0 0 Z " fill="#010101" transform="translate(528,289)"/>
<path d="M0 0 C25.08 0 50.16 0 76 0 C76 18.81 76 37.62 76 57 C47.65016445 57.11861856 19.34118478 56.66253951 -9 56 C-8.86601642 52.39946123 -8.72280067 48.79934249 -8.578125 45.19921875 C-8.54090332 44.19596558 -8.50368164 43.1927124 -8.46533203 42.15905762 C-8.18525351 35.33145718 -7.60851246 28.59129577 -6.75 21.8125 C-6.65420654 21.00768188 -6.55841309 20.20286377 -6.4597168 19.37365723 C-5.39248212 12.01196914 -3.06345074 7.35228178 0 0 Z " fill="#010101" transform="translate(424,289)"/>
<path d="M0 0 C28.05 0 56.1 0 85 0 C85 18.48 85 36.96 85 56 C59.92 56 34.84 56 9 56 C4.49759926 45.86959833 4.49759926 45.86959833 3.76953125 41.07421875 C3.52493164 39.50704102 3.52493164 39.50704102 3.27539062 37.90820312 C3.12263672 36.84537109 2.96988281 35.78253906 2.8125 34.6875 C2.64814453 33.63626953 2.48378906 32.58503906 2.31445312 31.50195312 C0.70879912 20.92543871 0 10.71333417 0 0 Z " fill="#010101" transform="translate(415,374)"/>
<path d="M0 0 C28.05 0 56.1 0 85 0 C82.32 40.2 82.32 40.2 76 56 C50.92 56 25.84 56 0 56 C0 37.52 0 19.04 0 0 Z " fill="#010101" transform="translate(528,374)"/>
<path d="M0 0 C12.18957265 1.52369658 19.79707847 7.2116899 29 15 C29.59167969 15.44601563 30.18335938 15.89203125 30.79296875 16.3515625 C41.85255848 24.91552035 49.16687684 38.05627013 56 50 C56.55816406 50.92039063 57.11632812 51.84078125 57.69140625 52.7890625 C59.079525 55.13436164 59.99827373 57.46622179 61 60 C61.64076537 61.23181619 62.28715567 62.4607141 62.9375 63.6875 C65.88062586 69.49659112 68 75.46138178 68 82 C45.56 82 23.12 82 0 82 C0 54.94 0 27.88 0 0 Z " fill="#020202" transform="translate(528,180)"/>
<path d="M0 0 C0.16858506 27.35227752 -0.34104386 54.65332003 -1 82 C-23.11 82 -45.22 82 -68 82 C-65.52159236 59.6943312 -51.01684464 37.80202853 -36.1875 21.375 C-35.71916748 20.85341309 -35.25083496 20.33182617 -34.76831055 19.79443359 C-32.52762069 17.37427789 -31.18324277 16.06108092 -28 15 C-28 14.34 -28 13.68 -28 13 C-20.28837363 6.38028533 -10.33313963 -0.24411103 0 0 Z " fill="#020202" transform="translate(500,180)"/>
<path d="M0 0 C22.44 0 44.88 0 68 0 C67.1859371 4.88437738 66.05796257 9.0560276 64.3125 13.625 C64.05065918 14.31851562 63.78881836 15.01203125 63.51904297 15.7265625 C61.08476775 22.03625027 58.18701132 28.03282987 55 34 C54.34 34 53.68 34 53 34 C52.76410156 34.85078125 52.52820313 35.7015625 52.28515625 36.578125 C50.84491667 40.41292704 48.8432596 43.47865921 46.4375 46.75 C45.99422363 47.35980713 45.55094727 47.96961426 45.09423828 48.59790039 C34.36939903 63.1350401 20.77276077 76.73399681 3 82 C2.01 82 1.02 82 0 82 C0 54.94 0 27.88 0 0 Z " fill="#020202" transform="translate(528,458)"/>
<path d="M0 0 C22.11 0 44.22 0 67 0 C67.65895614 27.34667997 68.16858506 54.64772248 68 82 C49.62913192 79.6300435 33.80669115 63.03255197 22.515625 49.17871094 C19.80158053 45.58382825 17.38530553 41.81747655 15 38 C14.36707031 37.05511719 13.73414063 36.11023438 13.08203125 35.13671875 C6.04690972 24.53153554 0 12.92627747 0 0 Z " fill="#020202" transform="translate(432,458)"/>
<path d="M0 0 C0.93900146 -0.00193359 1.87800293 -0.00386719 2.84545898 -0.00585938 C3.84134033 -0.00134766 4.83722168 0.00316406 5.86328125 0.0078125 C7.39094116 0.01071289 7.39094116 0.01071289 8.94946289 0.01367188 C17.71749668 0.06311955 26.43415311 0.47572367 35.17578125 1.1328125 C35.56232421 10.73542637 34.51495909 20.18840466 33.52172852 29.72290039 C33.23717059 32.45597999 32.96068754 35.18978593 32.68554688 37.92382812 C32.50697614 39.67713083 32.32795558 41.43038779 32.1484375 43.18359375 C32.02493675 44.39780754 32.02493675 44.39780754 31.89894104 45.6365509 C31.77892982 46.78385933 31.77892982 46.78385933 31.65649414 47.9543457 C31.58765518 48.61843948 31.51881622 49.28253326 31.44789124 49.9667511 C31.10451389 52.70011798 30.62867592 55.41544448 30.17578125 58.1328125 C11.36578125 58.1328125 -7.44421875 58.1328125 -26.82421875 58.1328125 C-25.65181155 39.37429736 -25.65181155 39.37429736 -24.51171875 32.9453125 C-24.38200684 32.20047607 -24.25229492 31.45563965 -24.11865234 30.68823242 C-20.10645203 8.72956856 -20.10645203 8.72956856 -11.26171875 2.2578125 C-7.44680449 0.49708284 -4.18859242 0.0056619 0 0 Z " fill="#020202" transform="translate(357.82421875,287.8671875)"/>
<path d="M0 0 C6.74386112 -0.20297343 13.48693454 -0.34298898 20.2331543 -0.43945312 C22.527399 -0.47966605 24.82143892 -0.53424675 27.11499023 -0.60351562 C30.41441302 -0.70066252 33.71112613 -0.74594803 37.01171875 -0.78125 C38.03585373 -0.82254028 39.05998871 -0.86383057 40.11515808 -0.90637207 C42.96081258 -0.90816204 45.27729259 -0.83297762 48 0 C50.3852724 2.38420971 51.69825639 4.9147674 53 8 C53.41507813 8.82886719 53.83015625 9.65773438 54.2578125 10.51171875 C59.91697451 24.71060722 63 41.70569579 63 57 C43.97636086 57.16892576 25.00807193 56.68675267 6 56 C5.13950422 49.15056195 4.28571859 42.3003111 3.43652344 35.44946289 C3.1470418 33.12049567 2.85604239 30.79171656 2.56347656 28.46313477 C2.1424583 25.11002504 1.72695922 21.75626973 1.3125 18.40234375 C1.18125732 17.36665756 1.05001465 16.33097137 0.91479492 15.26390076 C0.2860617 10.13201344 -0.15216045 5.17028518 0 0 Z " fill="#030303" transform="translate(634,289)"/>
<path d="M0 0 C18.81 0 37.62 0 57 0 C53.5553006 25.26112896 53.5553006 25.26112896 49.875 37.5625 C49.16286543 40.0217891 48.45187824 42.48141081 47.7421875 44.94140625 C47.4313623 45.99013916 47.12053711 47.03887207 46.80029297 48.11938477 C46.07339091 50.73583302 45.49214791 53.33066594 45 56 C27.99155747 57.05129446 11.03239192 57.11165965 -6 57 C-5.35572635 45.93396424 -4.37888973 34.91682782 -3.27050781 23.88842773 C-2.9959206 21.14676858 -2.72829633 18.40448183 -2.4609375 15.66210938 C-2.2868749 13.91402097 -2.11241124 12.16597244 -1.9375 10.41796875 C-1.81870483 9.19160957 -1.81870483 9.19160957 -1.69750977 7.94047546 C-1.1145855 2.229171 -1.1145855 2.229171 0 0 Z " fill="#040404" transform="translate(640,374)"/>
<path d="M0 0 C6.20727249 -0.02489804 12.41451528 -0.04295304 18.62182617 -0.05493164 C20.72925321 -0.05993051 22.83667682 -0.06673181 24.9440918 -0.07543945 C27.99008024 -0.08770131 31.03602245 -0.09327292 34.08203125 -0.09765625 C35.47335014 -0.10539818 35.47335014 -0.10539818 36.89277649 -0.11329651 C43.27802085 -0.11383232 49.67394824 0.06612413 56 1 C57.56120864 2.56120864 57.3927676 4.25889027 57.66430664 6.42456055 C57.78435562 7.36611496 57.9044046 8.30766937 58.02809143 9.27775574 C58.15417282 10.30371353 58.28025421 11.32967133 58.41015625 12.38671875 C58.54191757 13.43648392 58.67367889 14.48624908 58.80943298 15.56782532 C59.08802467 17.79617637 59.36445386 20.02479866 59.63891602 22.25366211 C60.05864035 25.65621127 60.48680355 29.05762056 60.91601562 32.45898438 C61.18540589 34.62233238 61.45430195 36.78574199 61.72265625 38.94921875 C61.85076187 39.96505539 61.97886749 40.98089203 62.1108551 42.0275116 C62.22775192 42.98482681 62.34464874 43.94214203 62.46508789 44.9284668 C62.56866104 45.76484177 62.67223419 46.60121674 62.77894592 47.4629364 C63.02603737 50.29883391 63 53.15335832 63 56 C46.5 56 30 56 13 56 C6.45498111 38.5466163 -0.17336813 18.84098738 0 0 Z " fill="#030303" transform="translate(331,374)"/>
<path d="M0 0 C13.53 0 27.06 0 41 0 C43.65555618 4.64722332 45.65299218 8.3156084 47.4375 13.1875 C51.35924533 23.83223732 55.79172904 33.86688999 61.5 43.6875 C63.14893818 46.55879491 64.79714221 49.43051036 66.4453125 52.30224609 C67.47333287 54.08610682 68.50967557 55.86519989 69.5546875 57.63916016 C70.02132812 58.44530762 70.48796875 59.25145508 70.96875 60.08203125 C71.38576172 60.79206299 71.80277344 61.50209473 72.23242188 62.23364258 C72.48572266 62.81654053 72.73902344 63.39943848 73 64 C72.67 64.66 72.34 65.32 72 66 C52.95117522 55.94133624 24.41793276 40.51117086 15 20 C14.34 20 13.68 20 13 20 C11.20173555 17.74185152 9.5253199 15.48722261 7.875 13.125 C7.40707031 12.47402344 6.93914062 11.82304687 6.45703125 11.15234375 C3 6.26412172 3 6.26412172 3 4 C2.34 4 1.68 4 1 4 C0.67 2.68 0.34 1.36 0 0 Z " fill="#060606" transform="translate(360,458)"/>
<path d="M0 0 C4.04493137 1.47292325 7.53197944 3.4211663 11.1875 5.6875 C11.75194824 6.0369165 12.31639648 6.38633301 12.89794922 6.74633789 C17.37971238 9.54728184 21.70587803 12.5380074 25.9765625 15.65234375 C28.05426112 17.16402451 28.05426112 17.16402451 31 18 C31 18.66 31 19.32 31 20 C31.58523438 20.26683594 32.17046875 20.53367188 32.7734375 20.80859375 C35.04730176 22.02531059 36.71165914 23.34049323 38.625 25.0625 C39.31722656 25.68382812 40.00945313 26.30515625 40.72265625 26.9453125 C41.47417969 27.62335938 42.22570312 28.30140625 43 29 C43.82371094 29.71929687 44.64742187 30.43859375 45.49609375 31.1796875 C55.70016193 40.15678249 65.57767012 50.90732191 72 63 C72 63.99 72 64.98 72 66 C58.47 66 44.94 66 31 66 C28.525 59.565 28.525 59.565 26 53 C24.81155458 50.34163524 23.62295225 47.68309896 22.39453125 45.04296875 C21.30208484 42.65917113 20.24083187 40.26931469 19.19921875 37.86328125 C18.88710449 37.14245361 18.57499023 36.42162598 18.25341797 35.67895508 C17.63695211 34.25135836 17.02261392 32.82284055 16.41064453 31.39331055 C15.11460681 28.39829322 13.81595923 25.72393884 12 23 C12 22.01 12 21.02 12 20 C11.34 20 10.68 20 10 20 C9.46375 18.88625 8.9275 17.7725 8.375 16.625 C6.22292044 12.28987571 3.73684286 8.2029715 1.171875 4.1015625 C0 2 0 2 0 0 Z " fill="#070707" transform="translate(595,196)"/>
<path d="M0 0 C-0.33 0.99 -0.66 1.98 -1 3 C-1.66 3 -2.32 3 -3 3 C-3.25394531 3.85722656 -3.50789063 4.71445313 -3.76953125 5.59765625 C-5.06849605 9.18939702 -6.72487546 12.16388854 -8.6875 15.4375 C-14.76725142 25.81325688 -19.53912993 36.56471242 -23.734375 47.8359375 C-25.82229902 53.05574756 -28.39121858 58.02448905 -31 63 C-44.69096943 63.16741675 -58.32550669 62.6492751 -72 62 C-63.67086983 46.35555299 -21.9208705 -7.30695683 0 0 Z " fill="#050505" transform="translate(432,199)"/>
<path d="M0 0 C13.53 0 27.06 0 41 0 C38.74862364 6.75412909 38.74862364 6.75412909 36.71484375 9.296875 C36.27116455 9.85810059 35.82748535 10.41932617 35.37036133 10.99755859 C34.89751709 11.57586426 34.42467285 12.15416992 33.9375 12.75 C33.44725342 13.36053223 32.95700684 13.97106445 32.4519043 14.60009766 C28.15560989 19.90658866 23.68225035 25.03001359 19 30 C18.37996094 30.67289062 17.75992188 31.34578125 17.12109375 32.0390625 C5.88421227 43.81550196 -8.3731015 52.90334763 -22.21484375 61.30078125 C-24.16881481 62.49289543 -26.09550628 63.73033752 -28 65 C-28.99 64.67 -29.98 64.34 -31 64 C-26.71077667 55.79884613 -22.413231 47.62088375 -17.75 39.625 C-14.4392277 33.8902694 -11.61657127 28.07719779 -9 22 C-8.27140718 20.39557262 -7.54227082 18.79139191 -6.8125 17.1875 C-5.32808787 13.84460389 -4.13444626 10.47896854 -3 7 C-2.01 4.69 -1.02 2.38 0 0 Z " fill="#060606" transform="translate(626,458)"/>
<path d="M0 0 C25.08 0 50.16 0 76 0 C76 1.98 76 3.96 76 6 C50.92 5.67 25.84 5.34 0 5 C-0.33 4.01 -0.66 3.02 -1 2 C-0.67 1.34 -0.34 0.68 0 0 Z " fill="#080808" transform="translate(424,289)"/>
<path d="M0 0 C-0.33 0.99 -0.66 1.98 -1 3 C-1.66 3 -2.32 3 -3 3 C-3.66 4.98 -4.32 6.96 -5 9 C-6.32 8.34 -7.64 7.68 -9 7 C-9.33 7.33 -9.66 7.66 -10 8 C-12.33944736 7.71269945 -14.6739143 7.38063221 -17 7 C-14.53113696 4.1641438 -11.9005012 2.80399248 -8.5 1.25 C-7.5409375 0.80140625 -6.581875 0.3528125 -5.59375 -0.109375 C-3 -1 -3 -1 0 0 Z " fill="#131313" transform="translate(432,199)"/>
<path d="M0 0 C1.35117416 0.0001133 1.35117416 0.0001133 2.72964478 0.00022888 C3.70364227 0.00539017 4.67763977 0.01055145 5.68115234 0.01586914 C6.67714447 0.01728409 7.6731366 0.01869904 8.6993103 0.02015686 C11.88860037 0.02576603 15.0778209 0.03832009 18.26708984 0.05102539 C20.425943 0.05603921 22.58479725 0.06060232 24.74365234 0.06469727 C30.04315534 0.07573844 35.34261763 0.09248552 40.64208984 0.11352539 C40.64208984 0.44352539 40.64208984 0.77352539 40.64208984 1.11352539 C29.42208984 1.11352539 18.20208984 1.11352539 6.64208984 1.11352539 C6.64208984 1.77352539 6.64208984 2.43352539 6.64208984 3.11352539 C2.68208984 3.11352539 -1.27791016 3.11352539 -5.35791016 3.11352539 C-5.68791016 3.77352539 -6.01791016 4.43352539 -6.35791016 5.11352539 C-6.35791016 3.79352539 -6.35791016 2.47352539 -6.35791016 1.11352539 C-4.00590956 -0.06247491 -2.62056615 -0.00732002 0 0 Z " fill="#2D2D2D" transform="translate(641.35791015625,288.886474609375)"/>
<path d="M0 0 C0.83595703 0.01353516 1.67191406 0.02707031 2.53320312 0.04101562 C4.58491498 0.07618783 6.63629275 0.12998952 8.6875 0.1875 C8.6875 0.5175 8.6875 0.8475 8.6875 1.1875 C5.29583365 2.05882361 1.89867918 2.90648318 -1.5 3.75 C-2.45970703 3.99685547 -3.41941406 4.24371094 -4.40820312 4.49804688 C-5.80522461 4.84125977 -5.80522461 4.84125977 -7.23046875 5.19140625 C-8.08406982 5.40611572 -8.9376709 5.6208252 -9.81713867 5.84204102 C-12.5756975 6.22393718 -14.63097528 5.87835484 -17.3125 5.1875 C-16.3225 4.5275 -15.3325 3.8675 -14.3125 3.1875 C-13.61769531 2.65511719 -12.92289062 2.12273437 -12.20703125 1.57421875 C-8.10505562 -0.39096526 -4.4815487 -0.13794822 0 0 Z " fill="#0B0B0B" transform="translate(436.3125,-0.1875)"/>
<path d="M0 0 C0.66 0.99 1.32 1.98 2 3 C0.68226796 6.00828582 -0.60401219 7.73996372 -3.1875 9.75 C-6.74312611 12.64497742 -9.55949323 15.88964809 -12.421875 19.4609375 C-14 21 -14 21 -17 21 C-16.27554688 20.23816406 -15.55109375 19.47632813 -14.8046875 18.69140625 C-9.25930024 12.79242509 -4.17885511 6.98239081 0 0 Z " fill="#222222" transform="translate(686,481)"/>
<path d="M0 0 C6.27 0 12.54 0 19 0 C18.67 0.99 18.34 1.98 18 3 C11.42706544 4.60671734 6.35352676 3.03358813 0 1 C0 0.67 0 0.34 0 0 Z " fill="#161616" transform="translate(576,0)"/>
<path d="M0 0 C0 3.46563376 -0.40326213 3.81881359 -2.625 6.28515625 C-3.16640625 6.89810547 -3.7078125 7.51105469 -4.265625 8.14257812 C-4.83796875 8.77615234 -5.4103125 9.40972656 -6 10.0625 C-7.12936281 11.32031511 -8.25459005 12.58185977 -9.375 13.84765625 C-9.87773437 14.40461182 -10.38046875 14.96156738 -10.8984375 15.53540039 C-12.20036217 16.96095817 -12.20036217 16.96095817 -12 19 C-13.98 19.99 -13.98 19.99 -16 21 C-14.48802117 16.22250478 -11.80124808 13.07401346 -8.5625 9.375 C-7.82676758 8.51648438 -7.82676758 8.51648438 -7.07617188 7.640625 C-4.80350264 5.00297919 -2.5179235 2.40696416 0 0 Z " fill="#2D2D2D" transform="translate(468,197)"/>
<path d="M0 0 C2 1 2 1 2.60791016 2.78491211 C3.30042769 6.69724809 3.30956861 10.59795245 3.375 14.5625 C3.41238281 15.42552734 3.44976563 16.28855469 3.48828125 17.17773438 C3.52152363 19.55456423 3.49723157 21.67477907 3 24 C0.6015625 26.15234375 0.6015625 26.15234375 -2 27 C-2.66 26.67 -3.32 26.34 -4 26 C-3.45859375 25.34257812 -3.45859375 25.34257812 -2.90625 24.671875 C2.31335649 17.5384128 1.62740486 10.70553641 0.5 2.25 C0.335 1.5075 0.17 0.765 0 0 Z " fill="#303030" transform="translate(1025,182)"/>
<path d="M0 0 C0.33 0.66 0.66 1.32 1 2 C1.66 2.33 2.32 2.66 3 3 C2.01 3.495 2.01 3.495 1 4 C1 4.66 1 5.32 1 6 C-0.62053812 7.38903267 -2.29705213 8.71332828 -4 10 C-4.928125 10.7425 -5.85625 11.485 -6.8125 12.25 C-7.534375 12.8275 -8.25625 13.405 -9 14 C-9.66 13.67 -10.32 13.34 -11 13 C-10.06027344 11.96939453 -10.06027344 11.96939453 -9.1015625 10.91796875 C-8.28429687 10.01691406 -7.46703125 9.11585938 -6.625 8.1875 C-5.81289063 7.29417969 -5.00078125 6.40085938 -4.1640625 5.48046875 C-1.90927093 3.00367326 -1.90927093 3.00367326 0 0 Z " fill="#212121" transform="translate(783,141)"/>
<path d="M0 0 C0.5 2 0.5 2 1 4 C1.37125 4.8971875 1.37125 4.8971875 1.75 5.8125 C2.16467311 9.44088971 0.71179025 11.87155576 -1 15 C-3.11328125 15.70703125 -3.11328125 15.70703125 -5 16 C-3.41078475 10.63904723 -1.81027062 5.29156027 0 0 Z " fill="#202020" transform="translate(461,686)"/>
<path d="M0 0 C0.99 0.66 1.98 1.32 3 2 C2.67 6.95 2.34 11.9 2 17 C1.34 17 0.68 17 0 17 C-0.66 17.99 -1.32 18.98 -2 20 C-1.34 13.4 -0.68 6.8 0 0 Z " fill="#252525" transform="translate(261,316)"/>
<path d="M0 0 C0.66 0.33 1.32 0.66 2 1 C1.43410156 1.45890625 0.86820312 1.9178125 0.28515625 2.390625 C-0.44832031 3.00421875 -1.18179687 3.6178125 -1.9375 4.25 C-3.03384766 5.15492188 -3.03384766 5.15492188 -4.15234375 6.078125 C-6.14937016 8.15537023 -6.39848971 9.27006867 -7 12 C-9.5625 13.25 -9.5625 13.25 -12 14 C-10.732949 8.91723221 -9.05505199 6.73324379 -4.875 3.625 C-3.96492188 2.93664062 -3.05484375 2.24828125 -2.1171875 1.5390625 C-1.06917969 0.77722656 -1.06917969 0.77722656 0 0 Z " fill="#1D1D1D" transform="translate(358,154)"/>
<path d="M0 0 C0.99 0.33 1.98 0.66 3 1 C2.01 1.495 2.01 1.495 1 2 C1.226875 2.556875 1.45375 3.11375 1.6875 3.6875 C2 6 2 6 0.8125 8.625 C-1.02061889 11.02701786 -2.2150993 11.94365836 -5 13 C-3.78184562 8.31479085 -2.30440013 4.29456388 0 0 Z " fill="#161616" transform="translate(621,471)"/>
<path d="M0 0 C0.33 0 0.66 0 1 0 C1.33 5.28 1.66 10.56 2 16 C0.68 16.33 -0.64 16.66 -2 17 C-1.34 11.39 -0.68 5.78 0 0 Z " fill="#272727" transform="translate(723,380)"/>
<path d="M0 0 C2.97 0 5.94 0 9 0 C9.33 0.66 9.66 1.32 10 2 C9.67 2.66 9.34 3.32 9 4 C5.65626525 3.44271087 2.96687001 2.64826111 0 1 C0 0.67 0 0.34 0 0 Z " fill="#212121" transform="translate(852,409)"/>
<path d="M0 0 C0.33 0.66 0.66 1.32 1 2 C-1.1875 4.5625 -1.1875 4.5625 -4 7 C-6.8125 6.8125 -6.8125 6.8125 -9 6 C-6.45543849 3.03134491 -3.51005335 1.6380249 0 0 Z " fill="#323232" transform="translate(424,200)"/>
<path d="M0 0 C1.32 1.65 2.64 3.3 4 5 C1 7 1 7 -3 9 C-2.01 6.03 -1.02 3.06 0 0 Z " fill="#1D1D1D" transform="translate(707,443)"/>
<path d="M0 0 C1.65 0 3.3 0 5 0 C4.67 1.65 4.34 3.3 4 5 C3.34 5 2.68 5 2 5 C1.67 5.66 1.34 6.32 1 7 C0 6 0 6 -0.0625 2.9375 C-0.041875 1.968125 -0.02125 0.99875 0 0 Z " fill="#151515" transform="translate(331,374)"/>
<path d="M0 0 C1.65 0 3.3 0 5 0 C5.66 1.98 6.32 3.96 7 6 C4.0625 5.25 4.0625 5.25 1 4 C0.125 1.875 0.125 1.875 0 0 Z " fill="#2D2D2D" transform="translate(360,458)"/>
<path d="M0 0 C2.31 0.33 4.62 0.66 7 1 C6.67 2.32 6.34 3.64 6 5 C3.69 4.34 1.38 3.68 -1 3 C-0.67 2.01 -0.34 1.02 0 0 Z " fill="#151515" transform="translate(97,425)"/>
<path d="M0 0 C0.66 0.33 1.32 0.66 2 1 C-0.65654657 4.73884332 -2.58110387 6.64978174 -7 8 C-6.875 6.25 -6.875 6.25 -6 4 C-2.9375 1.75 -2.9375 1.75 0 0 Z " fill="#191919" transform="translate(630,535)"/>
<path d="M0 0 C-1.70828921 2.10633718 -2.52148416 2.93801608 -5.26171875 3.29296875 C-6.06222656 3.25816406 -6.86273437 3.22335937 -7.6875 3.1875 C-8.49574219 3.16042969 -9.30398438 3.13335937 -10.13671875 3.10546875 C-10.75160156 3.07066406 -11.36648438 3.03585937 -12 3 C-11.38125 2.69449219 -10.7625 2.38898438 -10.125 2.07421875 C-8.72553168 1.36676694 -7.34835523 0.61308592 -6 -0.1875 C-3.57136965 -1.17413108 -2.42552909 -0.86626039 0 0 Z " fill="#303030" transform="translate(864,299)"/>
<path d="M0 0 C0.66 0.33 1.32 0.66 2 1 C1.67 2.32 1.34 3.64 1 5 C-0.65 5.33 -2.3 5.66 -4 6 C-4.33 5.01 -4.66 4.02 -5 3 C-2.625 1.4375 -2.625 1.4375 0 0 Z " fill="#232323" transform="translate(398,129)"/>
<path d="M0 0 C0.66 0 1.32 0 2 0 C2.33 1.65 2.66 3.3 3 5 C2.01 5.66 1.02 6.32 0 7 C-0.99 6.67 -1.98 6.34 -3 6 C-2.01 4.02 -1.02 2.04 0 0 Z " fill="#282828" transform="translate(598,516)"/>
<path d="M0 0 C0.33 0 0.66 0 1 0 C0.25 6.625 0.25 6.625 -2 10 C-2.66 10 -3.32 10 -4 10 C-3.625 7.5625 -3.625 7.5625 -3 5 C-2.34 4.67 -1.68 4.34 -1 4 C-0.34786708 1.97536745 -0.34786708 1.97536745 0 0 Z " fill="#202020" transform="translate(757,411)"/>
<path d="M0 0 C0.33 0.66 0.66 1.32 1 2 C1.66 2.33 2.32 2.66 3 3 C2 6 2 6 0 7 C-0.66 7.99 -1.32 8.98 -2 10 C-1.54177532 6.53058454 -1.10868317 3.32604951 0 0 Z " fill="#212121" transform="translate(268,285)"/>
<path d="M0 0 C3.3 0 6.6 0 10 0 C10 0.33 10 0.66 10 1 C6.37 1.66 2.74 2.32 -1 3 C-0.67 2.01 -0.34 1.02 0 0 Z " fill="#191919" transform="translate(435,0)"/>
<path d="M0 0 C1.98 0.495 1.98 0.495 4 1 C3.75 2.875 3.75 2.875 3 5 C0.9375 6.25 0.9375 6.25 -1 7 C-0.67 4.69 -0.34 2.38 0 0 Z " fill="#191919" transform="translate(465,673)"/>
<path d="M0 0 C2.97 0.33 5.94 0.66 9 1 C7.68 1.33 6.36 1.66 5 2 C5 2.66 5 3.32 5 4 C3.68 3.67 2.36 3.34 1 3 C1.33 2.67 1.66 2.34 2 2 C1.34 1.34 0.68 0.68 0 0 Z " fill="#262626" transform="translate(458,563)"/>
<path d="M0 0 C0.66 0.66 1.32 1.32 2 2 C2.66 1.34 3.32 0.68 4 0 C3.38722388 2.96175123 2.74627478 4.38058783 1 7 C0.34 7 -0.32 7 -1 7 C-0.67 4.69 -0.34 2.38 0 0 Z " fill="#252525" transform="translate(866,426)"/>
<path d="M0 0 C0.93065133 2.60582371 1.14917407 3.64198224 0.0625 6.25 C-0.4634375 7.11625 -0.4634375 7.11625 -1 8 C-1.66 7.67 -2.32 7.34 -3 7 C-2.625 4.0625 -2.625 4.0625 -2 1 C-1.34 0.67 -0.68 0.34 0 0 Z " fill="#1E1E1E" transform="translate(172,223)"/>
<path d="M0 0 C2.31 0.33 4.62 0.66 7 1 C6.01 1.33 5.02 1.66 4 2 C4 2.66 4 3.32 4 4 C2.68 3.67 1.36 3.34 0 3 C0 2.01 0 1.02 0 0 Z " fill="#121212" transform="translate(993,216)"/>
<path d="M0 0 C0.99 0.33 1.98 0.66 3 1 C2.34 2.32 1.68 3.64 1 5 C0.01 5 -0.98 5 -2 5 C-2 3.68 -2 2.36 -2 1 C-1.34 0.67 -0.68 0.34 0 0 Z " fill="#181818" transform="translate(653,640)"/>
<path d="M0 0 C-0.33 0.99 -0.66 1.98 -1 3 C-4.3 2.67 -7.6 2.34 -11 2 C-11 1.67 -11 1.34 -11 1 C-7.27569643 0.30710631 -3.78916254 -0.11144596 0 0 Z " fill="#2F2F2F" transform="translate(477,603)"/>
<path d="M0 0 C0.99 0.495 0.99 0.495 2 1 C1.01 1.495 1.01 1.495 0 2 C0 1.34 0 0.68 0 0 Z M-5 1 C-0.25 1.75 -0.25 1.75 2 4 C0.68 4.33 -0.64 4.66 -2 5 C-2.99 3.68 -3.98 2.36 -5 1 Z " fill="#262626" transform="translate(389,488)"/>
<path d="M0 0 C0.99 0 1.98 0 3 0 C2.67 2.31 2.34 4.62 2 7 C1.01 6.67 0.02 6.34 -1 6 C-0.67 4.02 -0.34 2.04 0 0 Z " fill="#191919" transform="translate(306,309)"/>
<path d="M0 0 C-0.33 0.66 -0.66 1.32 -1 2 C-1.99 2 -2.98 2 -4 2 C-4.99 2.33 -5.98 2.66 -7 3 C-7 2.01 -7 1.02 -7 0 C-4.3333581 -1.33332095 -2.83319697 -0.67102033 0 0 Z " fill="#141414" transform="translate(441,115)"/>
</svg>
